<svg width="48" height="48" viewBox="0 0 48 48" fill="none" xmlns="http://www.w3.org/2000/svg">
<path fill-rule="evenodd" clip-rule="evenodd" d="M25.9516 1.40662C25.6716 0.566599 24.8855 0 24 0C23.1145 0 22.3284 0.566599 22.0484 1.40662L16.888 16.888L1.40662 22.0484C0.566599 22.3284 0 23.1145 0 24C0 24.8855 0.566599 25.6716 1.40662 25.9516L16.888 31.112L22.0484 46.5934C22.3284 47.4334 23.1145 48 24 48C24.8855 48 25.6716 47.4334 25.9516 46.5934L31.112 31.112L46.5934 25.9516C47.4334 25.6716 48 24.8855 48 24C48 23.1145 47.4334 22.3284 46.5934 22.0484L31.112 16.888L25.9516 1.40662ZM20.8679 17.9587L24 8.5624L27.5341 19.1648C27.7389 19.7791 28.2209 20.2611 28.8352 20.4659L39.4376 24L30.0413 27.1321L20.8679 17.9587ZM17.9587 20.8679L8.5624 24L19.1648 27.5341C19.7791 27.7389 20.2611 28.2209 20.4659 28.8352L24 39.4376L27.1321 30.0413L17.9587 20.8679Z" fill="#F1F500"/>
</svg>
